FILE "track01.bin" BINARY
  TRACK 01 MODE1/2352
    INDEX 01 00:00:00

FILE "track02.bin" BINARY
  TRACK 02 AUDIO
    INDEX 01 00:00:00

FILE "track03.bin" BINARY
  TRACK 03 AUDIO
    INDEX 01 00:00:00

FILE "track04.bin" BINARY
  TRACK 04 AUDIO
    INDEX 01 00:00:00

FILE "track05.bin" BINARY
  TRACK 05 AUDIO
    INDEX 01 00:00:00

FILE "track06.bin" BINARY
  TRACK 06 AUDIO
    INDEX 01 00:00:00

FILE "track07.bin" BINARY
  TRACK 07 AUDIO
    INDEX 01 00:00:00

FILE "track08.bin" BINARY
  TRACK 08 AUDIO
    INDEX 01 00:00:00

FILE "track09.bin" BINARY
  TRACK 09 AUDIO
    INDEX 01 00:00:00

FILE "track10.bin" BINARY
  TRACK 10 AUDIO
    INDEX 01 00:00:00

FILE "track11.bin" BINARY
  TRACK 11 AUDIO
    INDEX 01 00:00:00

FILE "track12.bin" BINARY
  TRACK 12 AUDIO
    INDEX 01 00:00:00

FILE "track13.bin" BINARY
  TRACK 13 AUDIO
    INDEX 01 00:00:00

FILE "track14.bin" BINARY
  TRACK 14 AUDIO
    INDEX 01 00:00:00

FILE "track15.bin" BINARY
  TRACK 15 AUDIO
    INDEX 01 00:00:00

FILE "track16.bin" BINARY
  TRACK 16 AUDIO
    INDEX 01 00:00:00

FILE "track17.bin" BINARY
  TRACK 17 AUDIO
    INDEX 01 00:00:00

FILE "track18.bin" BINARY
  TRACK 18 AUDIO
    INDEX 01 00:00:00

FILE "track19.bin" BINARY
  TRACK 19 AUDIO
    INDEX 01 00:00:00

FILE "track20.bin" BINARY
  TRACK 20 AUDIO
    INDEX 01 00:00:00

FILE "track21.bin" BINARY
  TRACK 21 AUDIO
    INDEX 01 00:00:00

FILE "track22.bin" BINARY
  TRACK 22 AUDIO
    INDEX 01 00:00:00

FILE "track23.bin" BINARY
  TRACK 23 AUDIO
    INDEX 01 00:00:00

FILE "track24.bin" BINARY
  TRACK 24 AUDIO
    INDEX 01 00:00:00

FILE "track25.bin" BINARY
  TRACK 25 AUDIO
    INDEX 01 00:00:00

FILE "track26.bin" BINARY
  TRACK 26 AUDIO
    INDEX 01 00:00:00

FILE "track27.bin" BINARY
  TRACK 27 AUDIO
    INDEX 01 00:00:00

FILE "track28.bin" BINARY
  TRACK 28 AUDIO
    INDEX 01 00:00:00

FILE "track29.bin" BINARY
  TRACK 29 AUDIO
    INDEX 01 00:00:00

FILE "track30.bin" BINARY
  TRACK 30 AUDIO
    INDEX 01 00:00:00

FILE "track31.bin" BINARY
  TRACK 31 AUDIO
    INDEX 01 00:00:00

FILE "track32.bin" BINARY
  TRACK 32 AUDIO
    INDEX 01 00:00:00

FILE "track33.bin" BINARY
  TRACK 33 AUDIO
    INDEX 01 00:00:00

FILE "track34.bin" BINARY
  TRACK 34 AUDIO
    INDEX 01 00:00:00

FILE "track35.bin" BINARY
  TRACK 35 AUDIO
    INDEX 01 00:00:00

FILE "track36.bin" BINARY
  TRACK 36 AUDIO
    INDEX 01 00:00:00
